<?xml version="1.0" encoding="utf-8"?>
<svg version="1.1" xmlns:xlink="http://www.w3.org/1999/xlink" width="17px" height="13px" xmlns="http://www.w3.org/2000/svg">
  <g transform="matrix(1 0 0 1 -285 -2274 )">
    <path d="M 4.87137276785714 9.88387784090909  C 4.8745349702381 9.86848958333333  4.87611607142857 9.8577178030303  4.87611607142857 9.8515625  L 5.64453125 7.09090909090909  L 4.13616071428571 7.09090909090909  L 4.84765625 9.86079545454546  C 4.85398065476191 9.86695075757576  4.85714285714286 9.87618371212121  4.85714285714286 9.88849431818182  C 4.85714285714286 9.90080492424242  4.86030505952381 9.91003787878788  4.86662946428571 9.91619318181818  C 4.86662946428571 9.91003787878788  4.86821056547619 9.89926609848485  4.87137276785714 9.88387784090909  Z M 3.84207589285714 5.90909090909091  L 5.9765625 5.90909090909091  L 6.30859375 4.72727272727273  L 3.53850446428571 4.72727272727273  L 3.84207589285714 5.90909090909091  Z M 8.12053571428572 4.72727272727273  L 7.79799107142857 5.90909090909091  L 9.11662946428571 5.90909090909091  L 8.78459821428571 4.72727272727273  L 8.12053571428572 4.72727272727273  Z M 12.052734375 9.88849431818182  C 12.055896577381 9.87618371212121  12.0574776785714 9.86695075757576  12.0574776785714 9.86079545454546  L 12.7974330357143 7.09090909090909  L 11.2606026785714 7.09090909090909  L 12.0290178571429 9.8515625  C 12.0290178571429 9.8577178030303  12.0305989583333 9.86848958333333  12.0337611607143 9.88387784090909  C 12.0369233630952 9.89926609848485  12.0416666666667 9.91003787878788  12.0479910714286 9.91619318181818  C 12.0479910714286 9.91003787878788  12.049572172619 9.90080492424242  12.052734375 9.88849431818182  Z M 10.9285714285714 5.90909090909091  L 13.1104910714286 5.90909090909091  L 13.4235491071429 4.72727272727273  L 10.6060267857143 4.72727272727273  L 10.9285714285714 5.90909090909091  Z M 16.9146205357143 5.9921875  C 16.9715401785714 6.04758522727273  17 6.11837121212121  17 6.20454545454546  L 17 6.79545454545455  C 17 6.88162878787879  16.9715401785714 6.95241477272727  16.9146205357143 7.0078125  C 16.8577008928571 7.06321022727273  16.7849702380952 7.09090909090909  16.6964285714286 7.09090909090909  L 14.67578125 7.09090909090909  L 13.1199776785714 12.7784090909091  C 13.0757068452381 12.9261363636364  12.9776785714286 13  12.8258928571429 13  L 11.3175223214286 13  C 11.1657366071429 13  11.0677083333333 12.9261363636364  11.0234375 12.7784090909091  L 9.44866071428571 7.09090909090909  L 7.46595982142857 7.09090909090909  L 5.88169642857143 12.7784090909091  C 5.8374255952381 12.9261363636364  5.73939732142857 13  5.58761160714286 13  L 4.07924107142857 13  C 4.00967261904762 13  3.94800967261905 12.9784564393939  3.89425223214286 12.9353693181818  C 3.84049479166667 12.8922821969697  3.80729166666667 12.8399621212121  3.79464285714286 12.7784090909091  L 2.27678571428571 7.09090909090909  L 0.303571428571429 7.09090909090909  C 0.215029761904762 7.09090909090909  0.142299107142857 7.06321022727273  0.0853794642857143 7.0078125  C 0.0284598214285714 6.95241477272727  0 6.88162878787879  0 6.79545454545455  L 0 6.20454545454546  C 0 6.11837121212121  0.0284598214285714 6.04758522727273  0.0853794642857143 5.9921875  C 0.142299107142857 5.93678977272727  0.215029761904762 5.90909090909091  0.303571428571429 5.90909090909091  L 1.96372767857143 5.90909090909091  L 1.65066964285714 4.72727272727273  L 0.303571428571429 4.72727272727273  C 0.215029761904762 4.72727272727273  0.142299107142857 4.69957386363636  0.0853794642857143 4.64417613636364  C 0.0284598214285714 4.58877840909091  0 4.51799242424242  0 4.43181818181818  L 0 3.84090909090909  C 0 3.75473484848485  0.0284598214285714 3.68394886363636  0.0853794642857143 3.62855113636364  C 0.142299107142857 3.57315340909091  0.215029761904762 3.54545454545455  0.303571428571429 3.54545454545455  L 1.33761160714286 3.54545454545455  L 0.493303571428571 0.369318181818182  C 0.461681547619048 0.276988636363637  0.47749255952381 0.190814393939392  0.540736607142857 0.110795454545455  C 0.603980654761905 0.0369318181818178  0.686197916666667 0  0.787388392857143 0  L 2.08705357142857 0  C 2.2514880952381 0  2.34951636904762 0.073863636363637  2.38113839285714 0.22159090909091  L 3.23493303571429 3.54545454545455  L 6.640625 3.54545454545455  L 7.56082589285714 0.22159090909091  C 7.60509672619048 0.073863636363637  7.703125 0  7.85491071428571 0  L 9.05022321428571 0  C 9.20200892857143 0  9.30003720238095 0.073863636363637  9.34430803571429 0.22159090909091  L 10.2739955357143 3.54545454545455  L 13.7366071428571 3.54545454545455  L 14.6188616071429 0.22159090909091  C 14.6504836309524 0.073863636363637  14.7485119047619 0  14.9129464285714 0  L 16.2126116071429 0  C 16.3138020833333 0  16.3960193452381 0.0369318181818178  16.4592633928571 0.110795454545455  C 16.5225074404762 0.190814393939392  16.538318452381 0.276988636363637  16.5066964285714 0.369318181818182  L 15.6434151785714 3.54545454545455  L 16.6964285714286 3.54545454545455  C 16.7849702380952 3.54545454545455  16.8577008928571 3.57315340909091  16.9146205357143 3.62855113636364  C 16.9715401785714 3.68394886363636  17 3.75473484848485  17 3.84090909090909  L 17 4.43181818181818  C 17 4.51799242424242  16.9715401785714 4.58877840909091  16.9146205357143 4.64417613636364  C 16.8577008928571 4.69957386363636  16.7849702380952 4.72727272727273  16.6964285714286 4.72727272727273  L 15.3208705357143 4.72727272727273  L 14.9983258928571 5.90909090909091  L 16.6964285714286 5.90909090909091  C 16.7849702380952 5.90909090909091  16.8577008928571 5.93678977272727  16.9146205357143 5.9921875  Z " fill-rule="nonzero" fill="#ffffff" stroke="none" transform="matrix(1 0 0 1 285 2274 )" />
  </g>
</svg>