<?xml version="1.0" encoding="utf-8"?>
<svg version="1.1" xmlns:xlink="http://www.w3.org/1999/xlink" width="12px" height="10px" xmlns="http://www.w3.org/2000/svg">
  <g transform="matrix(1 0 0 1 -94 -1953 )">
    <path d="M 3.43861607142857 7.60298295454545  C 3.44084821428571 7.59114583333333  3.44196428571429 7.58285984848485  3.44196428571429 7.578125  L 3.984375 5.45454545454545  L 2.91964285714286 5.45454545454545  L 3.421875 7.58522727272727  C 3.42633928571429 7.58996212121212  3.42857142857143 7.59706439393939  3.42857142857143 7.60653409090909  C 3.42857142857143 7.61600378787879  3.43080357142857 7.62310606060606  3.43526785714286 7.62784090909091  C 3.43526785714286 7.62310606060606  3.43638392857143 7.61482007575757  3.43861607142857 7.60298295454545  Z M 2.71205357142857 4.54545454545455  L 4.21875 4.54545454545455  L 4.453125 3.63636363636364  L 2.49776785714286 3.63636363636364  L 2.71205357142857 4.54545454545455  Z M 5.73214285714286 3.63636363636364  L 5.50446428571429 4.54545454545455  L 6.43526785714286 4.54545454545455  L 6.20089285714286 3.63636363636364  L 5.73214285714286 3.63636363636364  Z M 8.5078125 7.60653409090909  C 8.51004464285714 7.59706439393939  8.51116071428572 7.58996212121212  8.51116071428572 7.58522727272727  L 9.03348214285714 5.45454545454545  L 7.94866071428572 5.45454545454545  L 8.49107142857143 7.578125  C 8.49107142857143 7.58285984848485  8.4921875 7.59114583333333  8.49441964285714 7.60298295454545  C 8.49665178571429 7.61482007575757  8.5 7.62310606060606  8.50446428571428 7.62784090909091  C 8.50446428571428 7.62310606060606  8.50558035714286 7.61600378787879  8.5078125 7.60653409090909  Z M 7.71428571428572 4.54545454545455  L 9.25446428571428 4.54545454545455  L 9.47544642857143 3.63636363636364  L 7.48660714285714 3.63636363636364  L 7.71428571428572 4.54545454545455  Z M 11.9397321428571 4.609375  C 11.9799107142857 4.65198863636364  12 4.70643939393939  12 4.77272727272727  L 12 5.22727272727273  C 12 5.29356060606061  11.9799107142857 5.34801136363636  11.9397321428571 5.390625  C 11.8995535714286 5.43323863636364  11.8482142857143 5.45454545454545  11.7857142857143 5.45454545454545  L 10.359375 5.45454545454545  L 9.26116071428572 9.82954545454545  C 9.22991071428572 9.94318181818182  9.16071428571428 10  9.05357142857143 10  L 7.98883928571428 10  C 7.88169642857143 10  7.8125 9.94318181818182  7.78125 9.82954545454545  L 6.66964285714286 5.45454545454545  L 5.27008928571429 5.45454545454545  L 4.15178571428571 9.82954545454545  C 4.12053571428571 9.94318181818182  4.05133928571429 10  3.94419642857143 10  L 2.87946428571429 10  C 2.83035714285714 10  2.78683035714286 9.98342803030303  2.74888392857143 9.95028409090909  C 2.7109375 9.91714015151515  2.6875 9.87689393939394  2.67857142857143 9.82954545454545  L 1.60714285714286 5.45454545454545  L 0.214285714285714 5.45454545454545  C 0.151785714285714 5.45454545454545  0.100446428571429 5.43323863636364  0.0602678571428572 5.390625  C 0.0200892857142857 5.34801136363636  0 5.29356060606061  0 5.22727272727273  L 0 4.77272727272727  C 0 4.70643939393939  0.0200892857142857 4.65198863636364  0.0602678571428572 4.609375  C 0.100446428571429 4.56676136363636  0.151785714285714 4.54545454545455  0.214285714285714 4.54545454545455  L 1.38616071428571 4.54545454545455  L 1.16517857142857 3.63636363636364  L 0.214285714285714 3.63636363636364  C 0.151785714285714 3.63636363636364  0.100446428571429 3.61505681818182  0.0602678571428572 3.57244318181818  C 0.0200892857142857 3.52982954545455  0 3.47537878787879  0 3.40909090909091  L 0 2.95454545454545  C 0 2.88825757575758  0.0200892857142857 2.83380681818182  0.0602678571428572 2.79119318181818  C 0.100446428571429 2.74857954545455  0.151785714285714 2.72727272727273  0.214285714285714 2.72727272727273  L 0.944196428571429 2.72727272727273  L 0.348214285714286 0.284090909090909  C 0.325892857142857 0.213068181818182  0.337053571428571 0.146780303030302  0.381696428571429 0.0852272727272729  C 0.426339285714286 0.0284090909090906  0.484375 0  0.555803571428571 0  L 1.47321428571429 0  C 1.58928571428571 0  1.65848214285714 0.0568181818181823  1.68080357142857 0.170454545454546  L 2.28348214285714 2.72727272727273  L 4.6875 2.72727272727273  L 5.33705357142857 0.170454545454546  C 5.36830357142857 0.0568181818181823  5.4375 0  5.54464285714286 0  L 6.38839285714286 0  C 6.49553571428572 0  6.56473214285714 0.0568181818181823  6.59598214285714 0.170454545454546  L 7.25223214285714 2.72727272727273  L 9.69642857142857 2.72727272727273  L 10.3191964285714 0.170454545454546  C 10.3415178571429 0.0568181818181823  10.4107142857143 0  10.5267857142857 0  L 11.4441964285714 0  C 11.515625 0  11.5736607142857 0.0284090909090906  11.6183035714286 0.0852272727272729  C 11.6629464285714 0.146780303030302  11.6741071428571 0.213068181818182  11.6517857142857 0.284090909090909  L 11.0424107142857 2.72727272727273  L 11.7857142857143 2.72727272727273  C 11.8482142857143 2.72727272727273  11.8995535714286 2.74857954545455  11.9397321428571 2.79119318181818  C 11.9799107142857 2.83380681818182  12 2.88825757575758  12 2.95454545454545  L 12 3.40909090909091  C 12 3.47537878787879  11.9799107142857 3.52982954545455  11.9397321428571 3.57244318181818  C 11.8995535714286 3.61505681818182  11.8482142857143 3.63636363636364  11.7857142857143 3.63636363636364  L 10.8147321428571 3.63636363636364  L 10.5870535714286 4.54545454545455  L 11.7857142857143 4.54545454545455  C 11.8482142857143 4.54545454545455  11.8995535714286 4.56676136363636  11.9397321428571 4.609375  Z " fill-rule="nonzero" fill="#ffffff" stroke="none" transform="matrix(1 0 0 1 94 1953 )" />
  </g>
</svg>