<?xml version="1.0" encoding="utf-8"?>
<svg version="1.1" xmlns:xlink="http://www.w3.org/1999/xlink" width="13px" height="10px" xmlns="http://www.w3.org/2000/svg">
  <g transform="matrix(1 0 0 1 -94 -3135 )">
    <path d="M 3.72516741071429 7.60298295454545  C 3.72758556547619 7.59114583333333  3.72879464285714 7.58285984848485  3.72879464285714 7.578125  L 4.31640625 5.45454545454545  L 3.16294642857143 5.45454545454545  L 3.70703125 7.58522727272727  C 3.71186755952381 7.58996212121212  3.71428571428571 7.59706439393939  3.71428571428571 7.60653409090909  C 3.71428571428571 7.61600378787879  3.71670386904762 7.62310606060606  3.72154017857143 7.62784090909091  C 3.72154017857143 7.62310606060606  3.72274925595238 7.61482007575757  3.72516741071429 7.60298295454545  Z M 2.93805803571429 4.54545454545455  L 4.5703125 4.54545454545455  L 4.82421875 3.63636363636364  L 2.70591517857143 3.63636363636364  L 2.93805803571429 4.54545454545455  Z M 6.20982142857143 3.63636363636364  L 5.96316964285714 4.54545454545455  L 6.97154017857143 4.54545454545455  L 6.71763392857143 3.63636363636364  L 6.20982142857143 3.63636363636364  Z M 9.216796875 7.60653409090909  C 9.21921502976191 7.59706439393939  9.22042410714286 7.58996212121212  9.22042410714286 7.58522727272727  L 9.78627232142857 5.45454545454545  L 8.61104910714286 5.45454545454545  L 9.19866071428571 7.578125  C 9.19866071428571 7.58285984848485  9.19986979166667 7.59114583333333  9.20228794642857 7.60298295454545  C 9.20470610119048 7.61482007575757  9.20833333333333 7.62310606060606  9.21316964285714 7.62784090909091  C 9.21316964285714 7.62310606060606  9.21437872023809 7.61600378787879  9.216796875 7.60653409090909  Z M 8.35714285714286 4.54545454545455  L 10.0256696428571 4.54545454545455  L 10.2650669642857 3.63636363636364  L 8.11049107142857 3.63636363636364  L 8.35714285714286 4.54545454545455  Z M 12.9347098214286 4.609375  C 12.9782366071429 4.65198863636364  13 4.70643939393939  13 4.77272727272727  L 13 5.22727272727273  C 13 5.29356060606061  12.9782366071429 5.34801136363636  12.9347098214286 5.390625  C 12.8911830357143 5.43323863636364  12.8355654761905 5.45454545454545  12.7678571428571 5.45454545454545  L 11.22265625 5.45454545454545  L 10.0329241071429 9.82954545454545  C 9.99906994047619 9.94318181818182  9.92410714285714 10  9.80803571428571 10  L 8.65457589285714 10  C 8.53850446428571 10  8.46354166666667 9.94318181818182  8.4296875 9.82954545454545  L 7.22544642857143 5.45454545454545  L 5.70926339285714 5.45454545454545  L 4.49776785714286 9.82954545454545  C 4.46391369047619 9.94318181818182  4.38895089285714 10  4.27287946428571 10  L 3.11941964285714 10  C 3.06622023809524 10  3.0190662202381 9.98342803030303  2.97795758928571 9.95028409090909  C 2.93684895833333 9.91714015151515  2.91145833333333 9.87689393939394  2.90178571428571 9.82954545454545  L 1.74107142857143 5.45454545454545  L 0.232142857142857 5.45454545454545  C 0.164434523809524 5.45454545454545  0.108816964285714 5.43323863636364  0.0652901785714286 5.390625  C 0.0217633928571429 5.34801136363636  0 5.29356060606061  0 5.22727272727273  L 0 4.77272727272727  C 0 4.70643939393939  0.0217633928571429 4.65198863636364  0.0652901785714286 4.609375  C 0.108816964285714 4.56676136363636  0.164434523809524 4.54545454545455  0.232142857142857 4.54545454545455  L 1.50167410714286 4.54545454545455  L 1.26227678571429 3.63636363636364  L 0.232142857142857 3.63636363636364  C 0.164434523809524 3.63636363636364  0.108816964285714 3.61505681818182  0.0652901785714286 3.57244318181818  C 0.0217633928571429 3.52982954545455  0 3.47537878787879  0 3.40909090909091  L 0 2.95454545454545  C 0 2.88825757575758  0.0217633928571429 2.83380681818182  0.0652901785714286 2.79119318181818  C 0.108816964285714 2.74857954545455  0.164434523809524 2.72727272727273  0.232142857142857 2.72727272727273  L 1.02287946428571 2.72727272727273  L 0.377232142857143 0.284090909090909  C 0.353050595238095 0.213068181818182  0.365141369047619 0.146780303030302  0.413504464285714 0.0852272727272729  C 0.46186755952381 0.0284090909090906  0.524739583333333 0  0.602120535714286 0  L 1.59598214285714 0  C 1.72172619047619 0  1.79668898809524 0.0568181818181823  1.82087053571429 0.170454545454546  L 2.47377232142857 2.72727272727273  L 5.078125 2.72727272727273  L 5.78180803571429 0.170454545454546  C 5.81566220238095 0.0568181818181823  5.890625 0  6.00669642857143 0  L 6.92075892857143 0  C 7.03683035714286 0  7.11179315476191 0.0568181818181823  7.14564732142857 0.170454545454546  L 7.85658482142857 2.72727272727273  L 10.5044642857143 2.72727272727273  L 11.1791294642857 0.170454545454546  C 11.2033110119048 0.0568181818181823  11.2782738095238 0  11.4040178571429 0  L 12.3978794642857 0  C 12.4752604166667 0  12.5381324404762 0.0284090909090906  12.5864955357143 0.0852272727272729  C 12.6348586309524 0.146780303030302  12.6469494047619 0.213068181818182  12.6227678571429 0.284090909090909  L 11.9626116071429 2.72727272727273  L 12.7678571428571 2.72727272727273  C 12.8355654761905 2.72727272727273  12.8911830357143 2.74857954545455  12.9347098214286 2.79119318181818  C 12.9782366071429 2.83380681818182  13 2.88825757575758  13 2.95454545454545  L 13 3.40909090909091  C 13 3.47537878787879  12.9782366071429 3.52982954545455  12.9347098214286 3.57244318181818  C 12.8911830357143 3.61505681818182  12.8355654761905 3.63636363636364  12.7678571428571 3.63636363636364  L 11.7159598214286 3.63636363636364  L 11.4693080357143 4.54545454545455  L 12.7678571428571 4.54545454545455  C 12.8355654761905 4.54545454545455  12.8911830357143 4.56676136363636  12.9347098214286 4.609375  Z " fill-rule="nonzero" fill="#ffffff" stroke="none" transform="matrix(1 0 0 1 94 3135 )" />
  </g>
</svg>