<?xml version="1.0" encoding="utf-8"?>
<svg version="1.1" xmlns:xlink="http://www.w3.org/1999/xlink" width="206px" height="159px" xmlns="http://www.w3.org/2000/svg">
  <defs>
    <filter x="135px" y="136px" width="206px" height="159px" filterUnits="userSpaceOnUse" id="filter37">
      <feOffset dx="1" dy="1" in="SourceAlpha" result="shadowOffsetInner" />
      <feGaussianBlur stdDeviation="1" in="shadowOffsetInner" result="shadowGaussian" />
      <feComposite in2="shadowGaussian" operator="atop" in="SourceAlpha" result="shadowComposite" />
      <feColorMatrix type="matrix" values="0 0 0 0 0  0 0 0 0 0  0 0 0 0 0  0 0 0 0.349019607843137 0  " in="shadowComposite" />
    </filter>
    <g id="widget38">
      <path d="M 138.5 214.5  A 75 75 0 0 1 213.5 139.5 L 260.5 139.5  A 75 75 0 0 1 335.5 214.5 A 75 75 0 0 1 260.5 289.5 L 213.5 289.5  A 75 75 0 0 1 138.5 214.5 Z " fill-rule="nonzero" fill="#ffffff" stroke="none" fill-opacity="0" />
      <path d="M 137.5 214.5  A 76 76 0 0 1 213.5 138.5 L 260.5 138.5  A 76 76 0 0 1 336.5 214.5 A 76 76 0 0 1 260.5 290.5 L 213.5 290.5  A 76 76 0 0 1 137.5 214.5 Z " stroke-width="3" stroke="#ffff00" fill="none" />
    </g>
  </defs>
  <g transform="matrix(1 0 0 1 -135 -136 )">
    <use xlink:href="#widget38" filter="url(#filter37)" />
    <use xlink:href="#widget38" />
  </g>
</svg>