<?xml version="1.0" encoding="utf-8"?>
<svg version="1.1" xmlns:xlink="http://www.w3.org/1999/xlink" width="10px" height="24px" xmlns="http://www.w3.org/2000/svg">
  <g transform="matrix(1 0 0 1 -381 -695 )">
    <path d="M 0.511414185492806 0.655796544359421  C 1.16585012589201 -0.246307970578589  2.27177333303854 -0.19044370015811  2.88650192424499 0.655796544359421  C 3.50123051545144 1.49996774182434  9.50733474149723 10.3699724563638  9.50733474149723 10.3699724563638  C 9.83528803297818 10.8230937608855  10 11.4127721708793  10 12.0024505808732  C 10 12.5921289908671  9.83528803297818 13.181807400861  9.50733474149723 13.6307906112774  C 9.50733474149723 13.6307906112774  3.50123051545144 22.5049334199221  2.88650192424499 23.3449665232818  C 2.27177333303855 24.1891377207467  1.16585012589201 24.2470710382198  0.511414185492806 23.3449665232818  C -0.144492397469105 22.447000102449  -0.195964887163418 21.1910885415147  0.511414185492806 20.0882864624735  L 6.02191186791042 12.0024505808732  L 0.511414185492806 3.91661469927293  C -0.195964887163418 2.81381262023175  -0.144492397469105 1.55583201224482  0.511414185492806 0.655796544359421  Z " fill-rule="nonzero" fill="#ffffff" stroke="none" transform="matrix(1 0 0 1 381 695 )" />
  </g>
</svg>