<?xml version="1.0" encoding="utf-8"?>
<svg version="1.1" xmlns:xlink="http://www.w3.org/1999/xlink" width="10px" height="17px" xmlns="http://www.w3.org/2000/svg">
  <g transform="matrix(1 0 0 1 -467 -4084 )">
    <path d="M 0.511414185492806 0.46452255225459  C 1.16585012589201 -0.1744681458265  2.27177333303854 -0.134897620945328  2.88650192424499 0.46452255225459  C 3.50123051545144 1.06247715045891  9.50733474149723 7.34539715659105  9.50733474149723 7.34539715659105  C 9.83528803297818 7.6663580806272  10 8.08404695437286  10 8.50173582811853  C 10 8.91942470186419  9.83528803297818 9.33711357560986  9.50733474149723 9.6551433496548  C 9.50733474149723 9.6551433496548  3.50123051545144 15.9409945057781  2.88650192424499 16.5360179539913  C 2.27177333303855 17.1339725521956  1.16585012589201 17.1750086520723  0.511414185492806 16.5360179539913  C -0.144492397469105 15.8999584059014  -0.195964887163418 15.0103543835729  0.511414185492806 14.2292029109187  L 6.02191186791042 8.50173582811853  L 0.511414185492806 2.77426874531833  C -0.195964887163418 1.99311727266416  -0.144492397469105 1.10204767534008  0.511414185492806 0.46452255225459  Z " fill-rule="nonzero" fill="#ffffff" stroke="none" transform="matrix(1 0 0 1 467 4084 )" />
  </g>
</svg>