<?xml version="1.0" encoding="utf-8"?>
<svg version="1.1" xmlns:xlink="http://www.w3.org/1999/xlink" width="184px" height="39px" xmlns="http://www.w3.org/2000/svg">
  <defs>
    <filter x="139px" y="100px" width="184px" height="39px" filterUnits="userSpaceOnUse" id="filter445">
      <feOffset dx="1" dy="1" in="SourceAlpha" result="shadowOffsetInner" />
      <feGaussianBlur stdDeviation="1" in="shadowOffsetInner" result="shadowGaussian" />
      <feComposite in2="shadowGaussian" operator="atop" in="SourceAlpha" result="shadowComposite" />
      <feColorMatrix type="matrix" values="0 0 0 0 0  0 0 0 0 0  0 0 0 0 0  0 0 0 0.349019607843137 0  " in="shadowComposite" />
    </filter>
    <g id="widget446">
      <path d="M 142.5 118.5  A 15 15 0 0 1 157.5 103.5 L 302.5 103.5  A 15 15 0 0 1 317.5 118.5 A 15 15 0 0 1 302.5 133.5 L 157.5 133.5  A 15 15 0 0 1 142.5 118.5 Z " fill-rule="nonzero" fill="#ffffff" stroke="none" fill-opacity="0" />
      <path d="M 141.5 118.5  A 16 16 0 0 1 157.5 102.5 L 302.5 102.5  A 16 16 0 0 1 318.5 118.5 A 16 16 0 0 1 302.5 134.5 L 157.5 134.5  A 16 16 0 0 1 141.5 118.5 Z " stroke-width="3" stroke="#ffff00" fill="none" />
    </g>
  </defs>
  <g transform="matrix(1 0 0 1 -139 -100 )">
    <use xlink:href="#widget446" filter="url(#filter445)" />
    <use xlink:href="#widget446" />
  </g>
</svg>